<svg width="396" height="100" viewBox="0 0 396 100" fill="none" xmlns="http://www.w3.org/2000/svg">
<path fill-rule="evenodd" clip-rule="evenodd" d="M96 4H4V96H96V4ZM0 0V100H100V0H0Z" fill="#FFD700"/>
<path fill-rule="evenodd" clip-rule="evenodd" d="M392 4H100V96H392V4ZM96 0V100H396V0H96Z" fill="#FFD700"/>
<path d="M160 62V26.6H161.8V62H160ZM167.2 62V26.6H169V62H167.2ZM170.8 62V26.6H172.6V62H170.8ZM178 62V26.6H179.8V62H178ZM185.2 62V26.6H187V62H185.2ZM188.8 62V26.6H190.6V62H188.8ZM192.4 62V26.6H197.8V62H192.4ZM199.6 62V26.6H201.4V62H199.6ZM203.2 62V26.6H208.6V62H203.2ZM214 62V26.6H215.8V62H214ZM188.8 81.38C187.08 81.38 185.64 80.84 184.48 79.76L185.38 78.26L185.5 78.02L185.68 78.14C185.68 78.18 185.68 78.24 185.68 78.32C185.72 78.44 185.76 78.54 185.8 78.62C185.88 78.74 185.96 78.86 186.04 78.98C186.4 79.3 186.8 79.56 187.24 79.76C187.68 79.92 188.22 80 188.86 80C189.66 80 190.3 79.86 190.78 79.58C191.22 79.3 191.44 78.9 191.44 78.38C191.44 77.94 191.26 77.58 190.9 77.3C190.54 77.02 189.86 76.74 188.86 76.46C186.3 75.7 185.02 74.64 185.02 73.28C185.02 72.48 185.36 71.86 186.04 71.42C186.68 70.94 187.6 70.7 188.8 70.7C189.72 70.7 190.5 70.84 191.14 71.12C191.78 71.36 192.36 71.76 192.88 72.32L191.92 73.4L191.8 73.58L191.68 73.46C191.68 73.3 191.64 73.18 191.56 73.1C191.52 72.98 191.42 72.86 191.26 72.74C190.9 72.46 190.52 72.26 190.12 72.14C189.68 71.98 189.26 71.9 188.86 71.9C188.22 71.9 187.68 72.02 187.24 72.26C186.84 72.46 186.64 72.76 186.64 73.16C186.64 73.56 186.86 73.9 187.3 74.18C187.7 74.5 188.44 74.82 189.52 75.14C190.8 75.54 191.7 75.96 192.22 76.4C192.78 76.84 193.06 77.44 193.06 78.2C193.06 79.12 192.7 79.88 191.98 80.48C191.26 81.08 190.2 81.38 188.8 81.38Z" fill="#FFD700"/>
<path d="M217.598 62V26.6H219.398V62H217.598ZM224.798 62V26.6H226.598V62H224.798ZM228.398 62V26.6H230.198V62H228.398ZM235.598 62V26.6H237.398V62H235.598ZM242.798 62V26.6H244.598V62H242.798ZM246.398 62V26.6H248.198V62H246.398ZM249.998 62V26.6H251.798V62H249.998ZM253.598 62V26.6H255.398V62H253.598ZM260.798 62V26.6H266.198V62H260.798ZM267.998 62V26.6H273.398V62H267.998ZM251.438 72.02C251.278 71.98 251.078 71.96 250.838 71.96C250.118 71.96 249.518 72.12 249.038 72.44C249.318 72.96 249.458 73.52 249.458 74.12C249.458 74.8 249.298 75.4 248.978 75.92C248.698 76.48 248.278 76.92 247.718 77.24C247.198 77.52 246.578 77.66 245.858 77.66C245.298 77.66 244.778 77.56 244.298 77.36C244.018 77.68 243.878 78 243.878 78.32C243.878 78.68 244.098 78.94 244.538 79.1C245.018 79.26 245.838 79.34 246.998 79.34C248.438 79.34 249.418 79.54 249.938 79.94C250.458 80.38 250.718 81.04 250.718 81.92C250.718 82.8 250.378 83.52 249.698 84.08C248.978 84.68 247.858 84.98 246.338 84.98C244.858 84.98 243.718 84.76 242.918 84.32C242.078 83.88 241.658 83.22 241.658 82.34C241.658 81.82 241.818 81.36 242.138 80.96C242.418 80.56 242.798 80.26 243.278 80.06C242.758 79.74 242.498 79.28 242.498 78.68C242.498 78.08 242.798 77.46 243.398 76.82C243.038 76.5 242.758 76.1 242.558 75.62C242.398 75.18 242.318 74.68 242.318 74.12C242.318 73.48 242.458 72.88 242.738 72.32C243.018 71.76 243.438 71.34 243.998 71.06C244.518 70.74 245.138 70.58 245.858 70.58C246.938 70.58 247.818 70.92 248.498 71.6C248.818 71.28 249.178 71.04 249.578 70.88C249.938 70.72 250.358 70.64 250.838 70.64L251.198 70.7L251.438 72.02ZM245.858 76.34C246.498 76.34 247.038 76.12 247.478 75.68C247.878 75.28 248.078 74.76 248.078 74.12C248.078 73.48 247.878 72.94 247.478 72.5C247.038 72.1 246.498 71.9 245.858 71.9C245.218 71.9 244.678 72.1 244.238 72.5C243.838 72.94 243.638 73.48 243.638 74.12C243.638 74.76 243.838 75.28 244.238 75.68C244.678 76.12 245.218 76.34 245.858 76.34ZM249.278 82.16C249.278 81.8 249.218 81.52 249.098 81.32C248.978 81.12 248.718 80.96 248.318 80.84C247.958 80.76 247.398 80.72 246.638 80.72C245.598 80.72 244.758 80.62 244.118 80.42C243.758 80.66 243.498 80.9 243.338 81.14C243.218 81.42 243.158 81.76 243.158 82.16C243.158 82.68 243.438 83.08 243.998 83.36C244.558 83.64 245.338 83.78 246.338 83.78C247.338 83.78 248.078 83.64 248.558 83.36C249.038 83.04 249.278 82.64 249.278 82.16Z" fill="#FFD700"/>
<path d="M275.195 62V26.6H276.995V62H275.195ZM282.395 62V26.6H284.195V62H282.395ZM285.995 62V26.6H287.795V62H285.995ZM293.195 62V26.6H294.995V62H293.195ZM300.395 62V26.6H302.195V62H300.395ZM303.995 62V26.6H309.395V62H303.995ZM311.195 62V26.6H312.995V62H311.195ZM314.795 62V26.6H320.195V62H314.795ZM325.595 62V26.6H327.395V62H325.595ZM329.195 62V26.6H330.995V62H329.195ZM304.475 81.38C302.955 81.38 301.755 80.92 300.875 80C299.955 79.08 299.495 77.78 299.495 76.1C299.495 74.98 299.715 74 300.155 73.16C300.555 72.36 301.115 71.76 301.835 71.36C302.515 70.92 303.295 70.7 304.175 70.7C305.415 70.7 306.415 71.1 307.175 71.9C307.935 72.74 308.315 73.96 308.315 75.56C308.315 75.72 308.315 75.96 308.315 76.28H301.055C301.095 77.52 301.435 78.46 302.075 79.1C302.715 79.74 303.535 80.06 304.535 80.06C305.615 80.06 306.495 79.68 307.175 78.92L308.075 79.82C307.195 80.86 305.995 81.38 304.475 81.38ZM306.695 75.02C306.695 74.06 306.455 73.3 305.975 72.74C305.495 72.18 304.855 71.9 304.055 71.9C303.335 71.9 302.695 72.16 302.135 72.68C301.575 73.2 301.235 73.98 301.115 75.02H306.695Z" fill="#FFD700"/>
<path fill-rule="evenodd" clip-rule="evenodd" d="M46.5891 29.6507L31.8946 45.5532L45.2259 60.5774L65.011 55.416L67.3222 37.5569L46.5891 29.6507ZM68.8572 36.6391L46.2022 28L30 45.5341L44.747 62.1538L66.2823 56.5359L68.8572 36.6391Z" fill="#FFD700"/>
<path d="M30 45.5341L31.8727 45.5341L45.2152 60.5152L65.1119 55.3655L66.2823 46.2364L68.8572 46.4853L66.2823 66.3821L44.747 72L30 55.3803L30 45.5341Z" fill="#FFD700"/>
<path fill-rule="evenodd" clip-rule="evenodd" d="M45.2152 60.5152L31.8727 45.5341L30 45.5341L30 55.3803L44.747 72L66.2823 66.3821L68.8572 46.4853L66.2823 46.2364L65.1119 55.3655L45.2152 60.5152ZM66.1385 56.5505L44.7368 62.0898L31.4045 47.1202L31.4045 54.847L45.2259 70.4236L65.0111 65.2623L66.1385 56.5505Z" fill="#FFD700"/>
<path fill-rule="evenodd" clip-rule="evenodd" d="M48.5351 37.8198L41.1209 45.8435L47.8257 53.3998L57.9342 50.7628L59.0884 41.8441L48.5351 37.8198ZM60.6234 40.9263L48.1481 36.1691L39.2262 45.8244L47.3468 54.9762L59.2055 51.8827L60.6234 40.9263Z" fill="#FFD700"/>
<path d="M48.1481 36.1691L60.6234 40.9263L59.4348 50.2008L48.1481 46.2215L43.9855 51.1371L39.2262 45.8244L48.1481 36.1691Z" fill="#FFD700"/>
<path fill-rule="evenodd" clip-rule="evenodd" d="M48.1481 46.2215L59.4348 50.2008L60.6234 40.9263L48.1481 36.1691L39.2262 45.8244L43.9855 51.1371L48.1481 46.2215ZM43.9557 48.999L47.702 44.575L58.2626 48.2983L59.0897 41.8446L48.5351 37.8198L41.125 45.839L43.9557 48.999Z" fill="#FFD700"/>
<path fill-rule="evenodd" clip-rule="evenodd" d="M30 55.3655L30 45.5341L31.4045 45.5341V55.3655H30Z" fill="#FFD700"/>
<path fill-rule="evenodd" clip-rule="evenodd" d="M67.4527 46.4705V36.6391L68.8572 36.6391V46.4705H67.4527Z" fill="#FFD700"/>
</svg>
